# Blender v2.79 (sub 6) OBJ File: 'cube.blend'
# www.blender.org
mtllib cube3.mtl
o Cube
v -0.890079 1.172283 -0.912969
v -1.231968 0.695737 0.999102
v 0.732264 0.768742 1.368512
v 1.074153 1.245287 -0.543559
v -0.732264 -0.768742 -1.368512
v -1.074152 -1.245287 0.543560
v 0.890079 -1.172283 0.912969
v 1.231968 -0.695737 -0.999102
vn -0.0789 0.9705 0.2278
vn 0.0789 -0.9705 -0.2278
vn -0.9821 -0.0365 -0.1847
vn -0.1709 -0.2383 0.9560
vn 0.9821 0.0365 0.1847
vn 0.1709 0.2383 -0.9560
usemtl Material
s off
f 2//1 4//1 1//1
f 8//2 6//2 5//2
f 5//3 2//3 1//3
f 6//4 3//4 2//4
f 3//5 8//5 4//5
f 1//6 8//6 5//6
f 2//1 3//1 4//1
f 8//2 7//2 6//2
f 5//3 6//3 2//3
f 6//4 7//4 3//4
f 3//5 7//5 8//5
f 1//6 4//6 8//6
