# Blender v2.79 (sub 7) OBJ File: 'cube.blend'
# www.blender.org
mtllib cube4.mtl
o Cube
v 0.361319 0.635714 -1.570133
v 1.501922 -0.658148 -0.557737
v -0.123669 -1.725279 -0.090099
v -1.264272 -0.431417 -1.102495
v 0.123669 1.725279 0.090099
v 1.264272 0.431417 1.102495
v -0.361319 -0.635714 1.570133
v -1.501922 0.658148 0.557737
vt 1.000000 0.000000
vt 0.000000 1.000000
vt 0.000000 0.000000
vt 1.000000 0.000000
vt 0.000000 1.000000
vt 0.000000 0.000000
vt 1.000000 0.000000
vt 0.000000 1.000000
vt 1.000000 0.000000
vt 0.000000 1.000000
vt 0.000000 0.000000
vt 1.000000 0.000000
vt 0.000000 0.000000
vt 1.000000 0.000000
vt 0.000000 1.000000
vt 1.000000 1.000000
vt 1.000000 1.000000
vt 1.000000 1.000000
vt 1.000000 1.000000
vt 1.000000 1.000000
vn 0.1188 -0.5448 -0.8301
vn -0.1188 0.5448 0.8301
vn 0.8128 0.5336 -0.2338
vn 0.5703 -0.6469 0.5062
vn -0.8128 -0.5336 0.2338
vn -0.5703 0.6469 -0.5062
usemtl Material
s off
f 2/1/1 4/2/1 1/3/1
f 8/4/2 6/5/2 5/6/2
f 5/7/3 2/8/3 1/3/3
f 6/9/4 3/10/4 2/11/4
f 7/12/5 4/2/5 3/13/5
f 1/14/6 8/15/6 5/6/6
f 2/1/1 3/16/1 4/2/1
f 8/4/2 7/17/2 6/5/2
f 5/7/3 6/18/3 2/8/3
f 6/9/4 7/17/4 3/10/4
f 7/12/5 8/19/5 4/2/5
f 1/14/6 4/20/6 8/15/6
