# Blender v2.79 (sub 7) OBJ File: ''
# www.blender.org
mtllib ball.mtl
o Cube
v 0.000000 -0.878472 -0.000000
v 0.350694 -0.819444 -0.000000
v -0.000000 -0.819444 0.350694
v -0.350694 -0.819444 -0.000000
v 0.000000 -0.819444 -0.350695
v 0.326389 -0.763889 -0.326389
v 0.326389 -0.763889 0.326389
v -0.326389 -0.763889 0.326389
v -0.326389 -0.763889 -0.326389
v -0.000000 0.878472 0.000000
v 0.000000 0.819444 -0.350694
v -0.350695 0.819444 0.000000
v -0.000000 0.819444 0.350695
v 0.350694 0.819444 0.000000
v 0.326389 0.763889 -0.326389
v -0.326389 0.763889 -0.326389
v -0.326389 0.763889 0.326389
v 0.326389 0.763889 0.326389
v 0.878472 0.000000 0.000000
v 0.819445 0.000000 -0.350694
v 0.819444 0.350694 0.000000
v 0.819444 0.000000 0.350695
v 0.819444 -0.350694 0.000000
v 0.763889 -0.326389 -0.326389
v 0.763889 0.326389 -0.326389
v 0.763889 0.326389 0.326389
v 0.763889 -0.326389 0.326389
v -0.000000 0.000000 0.878472
v 0.350694 0.000000 0.819445
v -0.000000 0.350694 0.819444
v -0.350695 0.000000 0.819444
v -0.000000 -0.350694 0.819444
v 0.326389 -0.326389 0.763889
v 0.326389 0.326389 0.763889
v -0.326389 0.326389 0.763889
v -0.326389 -0.326389 0.763889
v -0.878472 0.000000 -0.000000
v -0.819445 0.000000 0.350694
v -0.819444 0.350694 -0.000000
v -0.819444 0.000000 -0.350695
v -0.819444 -0.350694 -0.000000
v -0.763889 -0.326389 0.326389
v -0.763889 0.326389 0.326389
v -0.763889 0.326389 -0.326389
v -0.763889 -0.326389 -0.326389
v 0.000000 0.000000 -0.878472
v 0.350695 0.000000 -0.819444
v 0.000000 -0.350694 -0.819444
v -0.350694 0.000000 -0.819445
v 0.000000 0.350694 -0.819444
v 0.326389 0.326389 -0.763889
v 0.326389 -0.326389 -0.763889
v -0.326389 -0.326389 -0.763889
v -0.326389 0.326389 -0.763889
v 0.598958 -0.598958 -0.302083
v 0.643229 -0.643229 0.000000
v 0.598958 -0.598958 0.302083
v 0.302083 -0.598958 -0.598958
v 0.000000 -0.643229 -0.643229
v -0.302083 -0.598958 -0.598958
v 0.598958 -0.302083 -0.598958
v 0.643229 0.000000 -0.643229
v 0.598958 0.302083 -0.598958
v 0.302083 -0.598958 0.598958
v -0.000000 -0.643229 0.643229
v -0.302083 -0.598958 0.598958
v 0.598958 -0.302083 0.598958
v 0.643229 0.000000 0.643229
v 0.598958 0.302083 0.598959
v -0.598958 -0.598958 0.302083
v -0.643229 -0.643229 -0.000000
v -0.598958 -0.598958 -0.302084
v -0.598958 -0.302083 0.598958
v -0.643229 0.000000 0.643229
v -0.598959 0.302083 0.598958
v -0.598958 -0.302083 -0.598958
v -0.643229 0.000000 -0.643229
v -0.598958 0.302083 -0.598958
v 0.598958 0.598958 -0.302083
v 0.643229 0.643229 0.000000
v 0.598958 0.598958 0.302084
v 0.302083 0.598958 -0.598958
v 0.000000 0.643229 -0.643229
v -0.302083 0.598958 -0.598958
v 0.302083 0.598958 0.598959
v -0.000000 0.643229 0.643229
v -0.302084 0.598958 0.598958
v -0.598958 0.598958 0.302083
v -0.643229 0.643229 -0.000000
v -0.598958 0.598958 -0.302083
v 0.509259 -0.509259 -0.509259
v 0.509259 -0.509259 0.509259
v -0.509259 -0.509259 0.509259
v -0.509259 -0.509259 -0.509259
v 0.509259 0.509259 -0.509259
v 0.509259 0.509259 0.509260
v -0.509260 0.509259 0.509259
v -0.509259 0.509259 -0.509259
vt 0.000000 0.000000
vt 1.000000 1.000000
vt 0.000000 1.000000
vt 0.000000 0.000000
vt 1.000000 1.000000
vt 0.000000 1.000000
vt 0.000000 0.000000
vt 1.000000 1.000000
vt 0.000000 1.000000
vt 0.000000 0.000000
vt 1.000000 1.000000
vt 0.000000 1.000000
vt 1.000000 1.000000
vt 0.000000 1.000000
vt 0.000000 0.000000
vt 1.000000 1.000000
vt 0.000000 1.000000
vt 1.000000 1.000000
vt 0.000000 1.000000
vt 0.000000 0.000000
vt 1.000000 1.000000
vt 0.000000 1.000000
vt 1.000000 1.000000
vt 0.000000 1.000000
vt 0.000000 0.000000
vt 1.000000 1.000000
vt 0.000000 1.000000
vt 1.000000 1.000000
vt 0.000000 1.000000
vt 0.000000 0.000000
vt 1.000000 1.000000
vt 0.000000 1.000000
vt 1.000000 1.000000
vt 0.000000 1.000000
vt 1.000000 1.000000
vt 0.000000 1.000000
vt 1.000000 1.000000
vt 0.000000 1.000000
vt 0.000000 0.000000
vt 1.000000 1.000000
vt 0.000000 1.000000
vt 0.000000 0.000000
vt 1.000000 1.000000
vt 0.000000 1.000000
vt 0.000000 0.000000
vt 1.000000 1.000000
vt 0.000000 1.000000
vt 0.000000 0.000000
vt 1.000000 1.000000
vt 0.000000 1.000000
vt 0.000000 0.000000
vt 1.000000 1.000000
vt 0.000000 1.000000
vt 1.000000 1.000000
vt 0.000000 1.000000
vt 0.000000 0.000000
vt 1.000000 1.000000
vt 0.000000 1.000000
vt 1.000000 1.000000
vt 0.000000 1.000000
vt 0.000000 0.000000
vt 1.000000 1.000000
vt 0.000000 1.000000
vt 1.000000 1.000000
vt 0.000000 1.000000
vt 0.000000 0.000000
vt 1.000000 1.000000
vt 0.000000 1.000000
vt 1.000000 1.000000
vt 0.000000 1.000000
vt 0.000000 0.000000
vt 1.000000 1.000000
vt 0.000000 1.000000
vt 1.000000 1.000000
vt 0.000000 1.000000
vt 1.000000 1.000000
vt 0.000000 1.000000
vt 1.000000 1.000000
vt 0.000000 1.000000
vt 0.000000 0.000000
vt 1.000000 1.000000
vt 0.000000 1.000000
vt 0.000000 0.000000
vt 1.000000 1.000000
vt 0.000000 1.000000
vt 0.000000 0.000000
vt 1.000000 1.000000
vt 0.000000 1.000000
vt 0.000000 0.000000
vt 0.000000 1.000000
vt 0.000000 0.000000
vt 0.000000 1.000000
vt 1.000000 1.000000
vt 0.000000 1.000000
vt 0.000000 0.000000
vt 1.000000 1.000000
vt 0.000000 1.000000
vt 0.000000 0.000000
vt 0.000000 1.000000
vt 1.000000 1.000000
vt 0.000000 1.000000
vt 0.000000 0.000000
vt 1.000000 1.000000
vt 0.000000 1.000000
vt 0.000000 1.000000
vt 0.000000 0.000000
vt 0.000000 1.000000
vt 1.000000 1.000000
vt 0.000000 1.000000
vt 1.000000 1.000000
vt 0.000000 1.000000
vt 0.000000 0.000000
vt 0.000000 1.000000
vt 0.000000 0.000000
vt 1.000000 1.000000
vt 0.000000 1.000000
vt 0.000000 0.000000
vt 0.000000 0.000000
vt 0.000000 1.000000
vt 0.000000 0.000000
vt 0.000000 1.000000
vt 1.000000 1.000000
vt 0.000000 1.000000
vt 0.000000 0.000000
vt 0.000000 1.000000
vt 0.000000 0.000000
vt 0.000000 1.000000
vt 1.000000 1.000000
vt 0.000000 1.000000
vt 0.000000 0.000000
vt 1.000000 1.000000
vt 0.000000 1.000000
vt 0.000000 1.000000
vt 0.000000 0.000000
vt 0.000000 1.000000
vt 1.000000 1.000000
vt 0.000000 1.000000
vt 1.000000 1.000000
vt 0.000000 1.000000
vt 0.000000 0.000000
vt 0.000000 1.000000
vt 0.000000 0.000000
vt 1.000000 1.000000
vt 0.000000 1.000000
vt 0.000000 0.000000
vt 0.000000 0.000000
vt 0.000000 1.000000
vt 0.000000 0.000000
vt 0.000000 1.000000
vt 1.000000 1.000000
vt 0.000000 1.000000
vt 0.000000 0.000000
vt 0.000000 1.000000
vt 0.000000 0.000000
vt 0.000000 1.000000
vt 1.000000 1.000000
vt 0.000000 1.000000
vt 0.000000 0.000000
vt 1.000000 1.000000
vt 0.000000 1.000000
vt 0.000000 1.000000
vt 0.000000 0.000000
vt 0.000000 1.000000
vt 1.000000 1.000000
vt 0.000000 1.000000
vt 1.000000 1.000000
vt 0.000000 1.000000
vt 0.000000 0.000000
vt 0.000000 1.000000
vt 0.000000 0.000000
vt 1.000000 1.000000
vt 0.000000 1.000000
vt 0.000000 0.000000
vt 0.000000 0.000000
vt 0.000000 1.000000
vt 0.000000 0.000000
vt 0.000000 1.000000
vt 1.000000 1.000000
vt 0.000000 1.000000
vt 0.000000 0.000000
vt 0.000000 1.000000
vt 0.000000 0.000000
vt 0.000000 1.000000
vt 1.000000 1.000000
vt 0.000000 1.000000
vt 0.000000 0.000000
vt 0.000000 1.000000
vt 0.000000 0.000000
vt 0.000000 1.000000
vt 1.000000 1.000000
vt 0.000000 1.000000
vt 0.000000 1.000000
vt 0.000000 0.000000
vt 0.000000 1.000000
vt 1.000000 0.000000
vt 1.000000 0.000000
vt 1.000000 0.000000
vt 1.000000 0.000000
vt 1.000000 0.000000
vt 1.000000 0.000000
vt 1.000000 0.000000
vt 1.000000 0.000000
vt 1.000000 0.000000
vt 1.000000 0.000000
vt 1.000000 0.000000
vt 1.000000 0.000000
vt 1.000000 0.000000
vt 1.000000 0.000000
vt 1.000000 0.000000
vt 1.000000 0.000000
vt 1.000000 0.000000
vt 1.000000 0.000000
vt 1.000000 0.000000
vt 1.000000 0.000000
vt 1.000000 0.000000
vt 1.000000 0.000000
vt 1.000000 0.000000
vt 1.000000 0.000000
vt 1.000000 0.000000
vt 1.000000 0.000000
vt 1.000000 0.000000
vt 1.000000 0.000000
vt 1.000000 0.000000
vt 1.000000 0.000000
vt 1.000000 0.000000
vt 1.000000 0.000000
vt 1.000000 0.000000
vt 1.000000 0.000000
vt 1.000000 0.000000
vt 1.000000 0.000000
vt 1.000000 0.000000
vt 1.000000 0.000000
vt 1.000000 0.000000
vt 1.000000 0.000000
vt 1.000000 0.000000
vt 1.000000 0.000000
vt 1.000000 0.000000
vt 1.000000 0.000000
vt 1.000000 0.000000
vt 1.000000 0.000000
vt 1.000000 0.000000
vt 1.000000 0.000000
vt 1.000000 0.000000
vt 1.000000 0.000000
vt 1.000000 0.000000
vt 1.000000 0.000000
vt 1.000000 0.000000
vt 1.000000 0.000000
vt 1.000000 0.000000
vt 1.000000 0.000000
vt 1.000000 0.000000
vt 1.000000 0.000000
vt 1.000000 0.000000
vt 1.000000 0.000000
vt 1.000000 0.000000
vt 1.000000 0.000000
vt 1.000000 0.000000
vt 1.000000 0.000000
vt 1.000000 0.000000
vt 1.000000 0.000000
vt 1.000000 0.000000
vt 1.000000 0.000000
vt 1.000000 0.000000
vt 1.000000 0.000000
vt 1.000000 0.000000
vt 1.000000 0.000000
vt 1.000000 0.000000
vt 1.000000 0.000000
vt 1.000000 0.000000
vt 1.000000 0.000000
vt 1.000000 0.000000
vt 1.000000 0.000000
vt 1.000000 0.000000
vt 1.000000 0.000000
vt 1.000000 0.000000
vt 1.000000 0.000000
vt 1.000000 0.000000
vt 1.000000 0.000000
vn 0.0000 -1.0000 0.0000
vn 0.3465 -0.8717 -0.3465
vn 0.3519 -0.9360 0.0000
vn 0.6629 -0.6629 -0.3479
vn 0.7071 -0.7071 0.0000
vn 0.0000 -0.9360 -0.3519
vn 0.3479 -0.6629 -0.6629
vn 0.5773 -0.5773 -0.5773
vn 0.3465 -0.8717 0.3465
vn 0.0000 -0.9360 0.3519
vn 0.3479 -0.6629 0.6629
vn 0.0000 -0.7071 0.7071
vn 0.6629 -0.6629 0.3479
vn 0.5773 -0.5773 0.5773
vn -0.3465 -0.8717 0.3465
vn -0.3519 -0.9360 0.0000
vn -0.6629 -0.6629 0.3479
vn -0.7071 -0.7071 0.0000
vn -0.3479 -0.6629 0.6629
vn -0.5773 -0.5773 0.5773
vn -0.3465 -0.8717 -0.3465
vn -0.3479 -0.6629 -0.6629
vn 0.0000 -0.7071 -0.7071
vn -0.6629 -0.6629 -0.3479
vn -0.5773 -0.5773 -0.5773
vn 0.0000 1.0000 0.0000
vn 0.3465 0.8717 -0.3465
vn 0.0000 0.9360 -0.3519
vn 0.3479 0.6629 -0.6629
vn 0.0000 0.7071 -0.7071
vn 0.3519 0.9360 0.0000
vn 0.6629 0.6629 -0.3479
vn 0.5773 0.5773 -0.5773
vn -0.3465 0.8717 -0.3465
vn -0.3519 0.9360 0.0000
vn -0.6629 0.6629 -0.3479
vn -0.7071 0.7071 0.0000
vn -0.3479 0.6629 -0.6629
vn -0.5773 0.5773 -0.5773
vn -0.3465 0.8717 0.3465
vn 0.0000 0.9360 0.3519
vn -0.3479 0.6629 0.6629
vn 0.0000 0.7071 0.7071
vn -0.6629 0.6629 0.3479
vn -0.5773 0.5773 0.5773
vn 0.3465 0.8717 0.3465
vn 0.6629 0.6629 0.3479
vn 0.7071 0.7071 0.0000
vn 0.3479 0.6629 0.6629
vn 0.5773 0.5773 0.5773
vn 1.0000 0.0000 0.0000
vn 0.8717 -0.3465 -0.3465
vn 0.9360 0.0000 -0.3519
vn 0.6629 -0.3479 -0.6629
vn 0.7071 0.0000 -0.7071
vn 0.9360 -0.3519 0.0000
vn 0.8717 0.3465 -0.3465
vn 0.9360 0.3519 0.0000
vn 0.6629 0.3479 -0.6629
vn 0.8717 0.3465 0.3465
vn 0.9360 0.0000 0.3519
vn 0.6629 0.3479 0.6629
vn 0.7071 0.0000 0.7071
vn 0.8717 -0.3465 0.3465
vn 0.6629 -0.3479 0.6629
vn 0.0000 0.0000 1.0000
vn 0.3465 -0.3465 0.8717
vn 0.3519 0.0000 0.9360
vn 0.0000 -0.3519 0.9360
vn 0.3465 0.3465 0.8717
vn 0.0000 0.3519 0.9360
vn -0.3465 0.3465 0.8717
vn -0.3519 0.0000 0.9360
vn -0.6629 0.3479 0.6629
vn -0.7071 0.0000 0.7071
vn -0.3465 -0.3465 0.8717
vn -0.6629 -0.3479 0.6629
vn -1.0000 0.0000 0.0000
vn -0.8717 -0.3465 0.3465
vn -0.9360 0.0000 0.3519
vn -0.9360 -0.3519 0.0000
vn -0.8717 0.3465 0.3465
vn -0.9360 0.3519 0.0000
vn -0.8717 0.3465 -0.3465
vn -0.9360 0.0000 -0.3519
vn -0.6629 0.3479 -0.6629
vn -0.7071 0.0000 -0.7071
vn -0.8717 -0.3465 -0.3465
vn -0.6629 -0.3479 -0.6629
vn 0.0000 0.0000 -1.0000
vn 0.3465 0.3465 -0.8717
vn 0.3519 0.0000 -0.9360
vn 0.0000 0.3519 -0.9360
vn 0.3465 -0.3465 -0.8717
vn 0.0000 -0.3519 -0.9360
vn -0.3465 -0.3465 -0.8717
vn -0.3519 0.0000 -0.9360
vn -0.3465 0.3465 -0.8717
usemtl Material
s 1
f 1/1/1 6/2/2 2/3/3
f 2/4/3 55/5/4 56/6/5
f 5/7/6 58/8/7 6/9/2
f 6/10/2 91/11/8 55/12/4
f 1/1/1 7/13/9 3/14/10
f 3/15/10 64/16/11 65/17/12
f 2/4/3 57/18/13 7/19/9
f 7/20/9 92/21/14 64/22/11
f 1/1/1 8/23/15 4/24/16
f 4/25/16 70/26/17 71/27/18
f 3/15/10 66/28/19 8/29/15
f 8/30/15 93/31/20 70/32/17
f 1/1/1 9/33/21 5/34/6
f 5/7/6 60/35/22 59/36/23
f 4/25/16 72/37/24 9/38/21
f 9/39/21 94/40/25 60/41/22
f 10/42/26 15/43/27 11/44/28
f 11/45/28 82/46/29 83/47/30
f 14/48/31 79/49/32 15/50/27
f 15/51/27 95/52/33 82/53/29
f 10/42/26 16/54/34 12/55/35
f 12/56/35 90/57/36 89/58/37
f 11/45/28 84/59/38 16/60/34
f 16/61/34 98/62/39 90/63/36
f 10/42/26 17/64/40 13/65/41
f 13/66/41 87/67/42 86/68/43
f 12/56/35 88/69/44 17/70/40
f 17/71/40 97/72/45 87/73/42
f 10/42/26 18/74/46 14/75/31
f 14/48/31 81/76/47 80/77/48
f 13/66/41 85/78/49 18/79/46
f 18/80/46 96/81/50 81/82/47
f 19/83/51 24/84/52 20/85/53
f 20/86/53 61/87/54 62/88/55
f 23/89/56 55/5/4 24/90/52
f 24/91/52 91/11/8 61/92/54
f 19/83/51 25/93/57 21/94/58
f 21/95/58 79/49/32 80/77/48
f 20/86/53 63/96/59 25/97/57
f 25/98/57 95/52/33 79/99/32
f 19/83/51 26/100/60 22/101/61
f 22/102/61 69/103/62 68/104/63
f 21/95/58 81/76/47 26/105/60
f 26/106/60 96/81/50 69/107/62
f 19/83/51 27/108/64 23/109/56
f 23/89/56 57/18/13 56/6/5
f 22/102/61 67/110/65 27/111/64
f 27/112/64 92/21/14 57/113/13
f 28/114/66 33/115/67 29/116/68
f 29/117/68 67/110/65 68/104/63
f 32/118/69 64/16/11 33/119/67
f 33/120/67 92/21/14 67/121/65
f 28/114/66 34/122/70 30/123/71
f 30/124/71 85/78/49 86/68/43
f 29/117/68 69/103/62 34/125/70
f 34/126/70 96/81/50 85/127/49
f 28/114/66 35/128/72 31/129/73
f 31/130/73 75/131/74 74/132/75
f 30/124/71 87/67/42 35/133/72
f 35/134/72 97/72/45 75/135/74
f 28/114/66 36/136/76 32/137/69
f 32/118/69 66/28/19 65/17/12
f 31/130/73 73/138/77 36/139/76
f 36/140/76 93/31/20 66/141/19
f 37/142/78 42/143/79 38/144/80
f 38/145/80 73/138/77 74/132/75
f 41/146/81 70/26/17 42/147/79
f 42/148/79 93/31/20 73/149/77
f 37/142/78 43/150/82 39/151/83
f 39/152/83 88/69/44 89/58/37
f 38/145/80 75/131/74 43/153/82
f 43/154/82 97/72/45 88/155/44
f 37/142/78 44/156/84 40/157/85
f 40/158/85 78/159/86 77/160/87
f 39/152/83 90/57/36 44/161/84
f 44/162/84 98/62/39 78/163/86
f 37/142/78 45/164/88 41/165/81
f 41/146/81 72/37/24 71/27/18
f 40/158/85 76/166/89 45/167/88
f 45/168/88 94/40/25 72/169/24
f 46/170/90 51/171/91 47/172/92
f 47/173/92 63/96/59 62/88/55
f 50/174/93 82/46/29 51/175/91
f 51/176/91 95/52/33 63/177/59
f 46/170/90 52/178/94 48/179/95
f 48/180/95 58/8/7 59/36/23
f 47/173/92 61/87/54 52/181/94
f 52/182/94 91/11/8 58/183/7
f 46/170/90 53/184/96 49/185/97
f 49/186/97 76/166/89 77/160/87
f 48/180/95 60/35/22 53/187/96
f 53/188/96 94/40/25 76/189/89
f 46/170/90 54/190/98 50/191/93
f 50/174/93 84/59/38 83/47/30
f 49/186/97 78/159/86 54/192/98
f 54/193/98 98/62/39 84/194/38
f 1/1/1 5/195/6 6/2/2
f 2/4/3 6/196/2 55/5/4
f 5/7/6 59/197/23 58/8/7
f 6/10/2 58/198/7 91/11/8
f 1/1/1 2/199/3 7/13/9
f 3/15/10 7/200/9 64/16/11
f 2/4/3 56/201/5 57/18/13
f 7/20/9 57/202/13 92/21/14
f 1/1/1 3/203/10 8/23/15
f 4/25/16 8/204/15 70/26/17
f 3/15/10 65/205/12 66/28/19
f 8/30/15 66/206/19 93/31/20
f 1/1/1 4/207/16 9/33/21
f 5/7/6 9/208/21 60/35/22
f 4/25/16 71/209/18 72/37/24
f 9/39/21 72/210/24 94/40/25
f 10/42/26 14/211/31 15/43/27
f 11/45/28 15/212/27 82/46/29
f 14/48/31 80/213/48 79/49/32
f 15/51/27 79/214/32 95/52/33
f 10/42/26 11/215/28 16/54/34
f 12/56/35 16/216/34 90/57/36
f 11/45/28 83/217/30 84/59/38
f 16/61/34 84/218/38 98/62/39
f 10/42/26 12/219/35 17/64/40
f 13/66/41 17/220/40 87/67/42
f 12/56/35 89/221/37 88/69/44
f 17/71/40 88/222/44 97/72/45
f 10/42/26 13/223/41 18/74/46
f 14/48/31 18/224/46 81/76/47
f 13/66/41 86/225/43 85/78/49
f 18/80/46 85/226/49 96/81/50
f 19/83/51 23/227/56 24/84/52
f 20/86/53 24/228/52 61/87/54
f 23/89/56 56/201/5 55/5/4
f 24/91/52 55/229/4 91/11/8
f 19/83/51 20/230/53 25/93/57
f 21/95/58 25/231/57 79/49/32
f 20/86/53 62/232/55 63/96/59
f 25/98/57 63/233/59 95/52/33
f 19/83/51 21/234/58 26/100/60
f 22/102/61 26/235/60 69/103/62
f 21/95/58 80/213/48 81/76/47
f 26/106/60 81/236/47 96/81/50
f 19/83/51 22/237/61 27/108/64
f 23/89/56 27/238/64 57/18/13
f 22/102/61 68/239/63 67/110/65
f 27/112/64 67/240/65 92/21/14
f 28/114/66 32/241/69 33/115/67
f 29/117/68 33/242/67 67/110/65
f 32/118/69 65/205/12 64/16/11
f 33/120/67 64/243/11 92/21/14
f 28/114/66 29/244/68 34/122/70
f 30/124/71 34/245/70 85/78/49
f 29/117/68 68/239/63 69/103/62
f 34/126/70 69/246/62 96/81/50
f 28/114/66 30/247/71 35/128/72
f 31/130/73 35/248/72 75/131/74
f 30/124/71 86/225/43 87/67/42
f 35/134/72 87/249/42 97/72/45
f 28/114/66 31/250/73 36/136/76
f 32/118/69 36/251/76 66/28/19
f 31/130/73 74/252/75 73/138/77
f 36/140/76 73/253/77 93/31/20
f 37/142/78 41/254/81 42/143/79
f 38/145/80 42/255/79 73/138/77
f 41/146/81 71/209/18 70/26/17
f 42/148/79 70/256/17 93/31/20
f 37/142/78 38/257/80 43/150/82
f 39/152/83 43/258/82 88/69/44
f 38/145/80 74/252/75 75/131/74
f 43/154/82 75/259/74 97/72/45
f 37/142/78 39/260/83 44/156/84
f 40/158/85 44/261/84 78/159/86
f 39/152/83 89/221/37 90/57/36
f 44/162/84 90/262/36 98/62/39
f 37/142/78 40/263/85 45/164/88
f 41/146/81 45/264/88 72/37/24
f 40/158/85 77/265/87 76/166/89
f 45/168/88 76/266/89 94/40/25
f 46/170/90 50/267/93 51/171/91
f 47/173/92 51/268/91 63/96/59
f 50/174/93 83/217/30 82/46/29
f 51/176/91 82/269/29 95/52/33
f 46/170/90 47/270/92 52/178/94
f 48/180/95 52/271/94 58/8/7
f 47/173/92 62/232/55 61/87/54
f 52/182/94 61/272/54 91/11/8
f 46/170/90 48/273/95 53/184/96
f 49/186/97 53/274/96 76/166/89
f 48/180/95 59/197/23 60/35/22
f 53/188/96 60/275/22 94/40/25
f 46/170/90 49/276/97 54/190/98
f 50/174/93 54/277/98 84/59/38
f 49/186/97 77/265/87 78/159/86
f 54/193/98 78/278/86 98/62/39
